# xmcd
#
# Track frame offsets: 
#        150
#        19968
#        29929
#        46542
#        62649
#        78380
#        93339
#        113869
#        138073
#        158457
#        184478
#        203594
#        224395
#
# Disc length: 3233 seconds
#
# Revision: 0
# Processed by: cddbd v1.5.2PL0 Copyright (c) Steve Scherf et al.
# Submitted via: ExactAudioCopy v0.99pb4
#
DISCID=ab0c9f0d
DTITLE=OlivierDaySoul - Kilowatt
DYEAR=2008
DGENRE=R&B
TTITLE0=Anytime
TTITLE1=Soul4U
TTITLE2=Spaceship
TTITLE3=Bump It
TTITLE4=Fantasies
TTITLE5=Dance
TTITLE6=Brain
TTITLE7=Potion No.9
TTITLE8=Change Her Mind
TTITLE9=You
TTITLE10=Watchin
TTITLE11=Galactic Wifey
TTITLE12=Bopgunn (Instrumental)
EXTD=
EXTT0=
EXTT1=
EXTT2=
EXTT3=
EXTT4=
EXTT5=
EXTT6=
EXTT7=
EXTT8=
EXTT9=
EXTT10=
EXTT11=
EXTT12=
PLAYORDER=
